<svg width="142" height="113" viewBox="0 0 142 113" fill="none" xmlns="http://www.w3.org/2000/svg">
<path d="M59.1585 6.88028V3.49873V0.117188H100.425C123.351 0.117188 141.692 0.339969 141.692 0.618157C141.692 0.89346 137.512 10.5677 132.405 22.1171C127.297 33.666 122.153 45.3228 120.972 48.021C119.791 50.7192 116.537 58.1535 113.741 64.5414L108.656 76.1561L105.35 74.7293L102.045 73.3026L103.678 68.5625C113.48 40.1267 94.9479 10.9498 64.9168 7.53477L59.1585 6.88028Z" fill="url(#paint0_radial_2324_35)"/>
<path d="M12.2452 26.1942C19.3632 17.2892 29.1471 10.7449 39.9474 7.66463C42.1013 7.05054 44.1808 6.52937 44.5675 6.50686C44.9548 6.48435 46.1437 7.82912 47.2103 9.49594C48.2763 11.1628 50.6219 14.7625 52.422 17.4953C54.2227 20.2287 55.6956 22.5979 55.6956 22.7595C55.6956 22.9217 54.0727 23.2339 52.0884 23.4538C43.176 24.4419 35.9979 27.6065 29.9776 33.2014C22.8261 39.8485 19.41 47.2764 18.9107 57.2641C18.3555 68.3645 21.6863 77.0391 29.442 84.6956C36.2225 91.3889 44.4844 94.7704 54.0571 94.7704C60.6938 94.7704 64.2202 93.989 69.9727 91.2423C75.9324 88.3975 81.117 83.6579 85.1553 77.3623C86.7921 74.8107 88.3343 72.9436 88.583 73.2137C88.8312 73.4833 91.2581 77.1372 93.9765 81.3331L98.9193 88.9614L95.8396 92.8762C88.9126 101.682 78.8747 108.074 66.9501 111.272C63.8508 112.104 60.8935 112.357 54.2527 112.36C44.9871 112.364 41.9732 111.825 34.4408 108.817C22.5329 104.062 12.304 94.5707 6.41995 82.8164C-2.676 64.6453 -0.340254 41.9389 12.2452 26.1942Z" fill="url(#paint1_radial_2324_35)"/>
<defs>
<radialGradient id="paint0_radial_2324_35" cx="0" cy="0" r="1" gradientUnits="userSpaceOnUse" gradientTransform="translate(71.3033 56.2385) rotate(107.668) scale(32.3052 101.822)">
<stop stop-color="#2D3192"/>
<stop offset="0.19" stop-color="#2D3192"/>
<stop offset="0.415" stop-color="#2D3192"/>
<stop offset="1" stop-color="#0056A6"/>
</radialGradient>
<radialGradient id="paint1_radial_2324_35" cx="0" cy="0" r="1" gradientUnits="userSpaceOnUse" gradientTransform="translate(71.3033 56.2385) rotate(107.668) scale(32.3052 101.822)">
<stop stop-color="#2D3192"/>
<stop offset="0.19" stop-color="#2D3192"/>
<stop offset="0.415" stop-color="#2D3192"/>
<stop offset="1" stop-color="#0056A6"/>
</radialGradient>
</defs>
</svg>
