<svg width="45" height="49" viewBox="0 0 45 49" fill="none" xmlns="http://www.w3.org/2000/svg">
<path fill-rule="evenodd" clip-rule="evenodd" d="M0.642822 12.7982L22.4393 0.930664L44.6428 12.7982V36.5754L22.4393 48.4429L0.642822 36.5754V12.7982ZM22.4393 3.16902L2.63254 13.9807V35.3506L22.4393 46.0778L42.6983 35.3506V13.9807C42.6983 13.9807 30.192 7.2428 22.4393 3.16902Z" fill="#00ADB5"/>
<path fill-rule="evenodd" clip-rule="evenodd" d="M22.4393 34.7599L17.0128 31.8458L15.9275 32.3526L11.6768 30.1987V25.891L13.4856 24.8351V20.7808L18.2338 18.3735V16.5575L22.4393 14.5303L26.6901 16.5575L26.8258 18.3735L31.4383 20.7808V24.8351L33.3376 25.8065V30.1987L29.2225 32.4793L27.9111 31.8458L22.4393 34.7599ZM19.7713 16.8531L22.4393 15.4172L25.243 16.8531L22.4393 18.2046L19.7713 16.8531ZM25.65 17.7822L22.982 19.0492V22.0055L25.65 20.4851V17.7822ZM19.3191 17.7822L21.9871 19.0492V22.0055L19.3191 20.6118V17.7822ZM29.0416 24.624L26.2379 26.0177L29.2225 27.5381L31.8453 26.0177L29.0416 24.624ZM25.8309 26.9046L28.6346 28.3405V31.1701L25.8309 29.7764V26.9046ZM29.5843 31.1701V28.256L32.2523 26.9046V29.6919L29.5843 31.1701ZM26.8258 19.4293L30.4435 21.3298V24.3283L29.0416 23.7371L24.7456 25.891V30.1987L26.8258 31.3813L22.4393 33.5352L18.0077 31.3813L20.2687 30.1987V25.891L15.9275 23.7371L14.6161 24.3283V21.3298L18.2338 19.4293V21.1186L22.4393 23.2303L26.8258 20.9919V19.4293ZM19.1382 26.9046L16.4702 28.256V31.1701L19.1382 29.7764V26.9046ZM13.3499 26.0177L15.9275 24.624L18.5956 26.0177L16.0632 27.5381L13.3499 26.0177ZM15.4301 28.256L12.7168 26.9046V29.7764L15.4301 31.1701V28.256Z" fill="#00ADB5"/>
</svg>
