<svg width="119" height="96" viewBox="0 0 119 96" fill="none" xmlns="http://www.w3.org/2000/svg">
<path d="M49.2339 5.74173V2.87965V0.0175781H84.117C103.497 0.0175781 119 0.206136 119 0.441589C119 0.6746 115.467 8.8627 111.15 18.6379C106.832 28.4126 102.483 38.2787 101.485 40.5624C100.487 42.8461 97.7365 49.1384 95.3727 54.545L91.075 64.3754L88.2805 63.1679L85.4859 61.9603L86.8671 57.9483C95.1522 33.8808 79.487 9.18609 54.1014 6.29568L49.2339 5.74173Z" fill="white"/>
<path d="M9.57749 22.0886C15.5944 14.5517 23.8649 9.01267 32.9945 6.40559C34.8153 5.88583 36.5731 5.44472 36.8999 5.42567C37.2273 5.40662 38.2323 6.54481 39.1339 7.95557C40.035 9.36634 42.0177 12.4131 43.5394 14.7261C45.0616 17.0396 46.3067 19.0448 46.3067 19.1816C46.3067 19.3189 44.9347 19.5831 43.2574 19.7693C35.7237 20.6056 29.656 23.284 24.5669 28.0194C18.5217 33.6454 15.634 39.9323 15.212 48.3856C14.7426 57.7808 17.5581 65.1228 24.1142 71.6032C29.8458 77.2682 36.8297 80.1303 44.9216 80.1303C50.5316 80.1303 53.5126 79.4689 58.3752 77.1441C63.413 74.7363 67.7956 70.7248 71.2093 65.3964C72.5929 63.2367 73.8965 61.6565 74.1067 61.8851C74.3165 62.1132 76.368 65.2059 78.6659 68.7572L82.8441 75.2136L80.2408 78.527C74.3853 85.98 65.9002 91.3905 55.8202 94.0972C53.2003 94.8007 50.7005 95.0151 45.087 95.0176C37.2546 95.021 34.7069 94.5647 28.3397 92.0187C18.2739 87.9945 9.62725 79.9613 4.65336 70.0126C-3.03554 54.6329 -1.06111 35.4147 9.57749 22.0886Z" fill="white"/>
</svg>
